<svg xmlns="http://www.w3.org/2000/svg" width="512" height="512" viewBox="0 0 24 24" fill="none" stroke="#3b82f6" stroke-width="2" stroke-linecap="round" stroke-linejoin="round">
  <path d="M10.394 2.08a1 1 0 00-.788 0l-7 3a1 1 0 000 1.84L5.25 8.051a.999.999 0 01.356-.257l4-1.714a1 1 0 11.788 1.838L7.667 9.088l1.94.831a1 1 0 00.787 0l7-3a1 1 0 000-1.838l-7-3zM3.31 9.397L5 10.12v4.102a8.969 8.969 0 0010 0v-4.102l1.69-.723a1 1 0 01.787 1.837l-7 3a1 1 0 01-.788 0l-7-3a1 1 0 01.788-1.837z"></path>
  <circle cx="12" cy="12" r="3"></circle>
</svg>
